<?xml version="1.0" encoding="utf-8"?>
<!-- Generator: Adobe Illustrator 24.1.0, SVG Export Plug-In . SVG Version: 6.00 Build 0)  -->
<svg version="1.1" id="Layer_1" xmlns="http://www.w3.org/2000/svg" xmlns:xlink="http://www.w3.org/1999/xlink" x="0px" y="0px"
	 viewBox="0 0 231.3 196.4" style="enable-background:new 0 0 231.3 196.4;" xml:space="preserve">
<style type="text/css">
	.st0{fill:#1F7F9B;}
</style>
<g id="Icon">
	<rect x="52.9" y="54.1" class="st0" width="127.5" height="9"/>
	<rect x="52.9" y="103.6" class="st0" width="40.9" height="9"/>
	<polygon class="st0" points="223,7.2 10.3,7.2 10.3,153.7 124.3,153.7 120.1,150.8 122.6,139.3 117.5,133.7 30.3,133.7 30.3,27.2 
		203,27.2 203,133.7 192.5,133.7 187.4,139.3 189.9,150.8 185.7,153.7 223,153.7 	"/>
	<polygon class="st0" points="146.3,163 134.9,165.5 132.8,159 120,179.9 135.9,177.2 142.5,189.5 154.3,170.3 	"/>
	<polygon class="st0" points="163.7,163 155.7,170.3 167.5,189.5 174.2,177.2 190,179.9 177.2,159 175.2,165.5 	"/>
	<rect x="52.9" y="73.8" class="st0" width="127.5" height="9"/>
	<path class="st0" d="M184.5,130.6l-5.8-6.3l1.8-8.4l-8.2-2.6l-2.6-8.2l-8.4,1.8l-6.3-5.8l-6.3,5.8l-8.4-1.8l-2.6,8.2l-8.2,2.6
		l1.8,8.4l-5.8,6.3l5.8,6.3l-1.8,8.4l8.2,2.6l2.6,8.2l8.4-1.8l6.3,5.8l6.3-5.8l8.4,1.8l2.6-8.2l8.2-2.6l-1.8-8.4L184.5,130.6z
		 M155,142c-6.3,0-11.3-5.1-11.3-11.3c0-6.3,5.1-11.3,11.3-11.3c6.3,0,11.3,5.1,11.3,11.3C166.3,136.9,161.3,142,155,142z"/>
</g>
<g id="Text">
</g>
</svg>
