<svg xmlns="http://www.w3.org/2000/svg" viewBox="0 0 338.16 351.55"><defs><style>.cls-1{fill:#1f7f9b;}</style></defs><g id="Layer_2" data-name="Layer 2"><g id="Layer_1-2" data-name="Layer 1"><circle class="cls-1" cx="48.16" cy="33.33" r="27.33"/><path class="cls-1" d="M92.72,19.79a73.11,73.11,0,0,1,7,9.78,134.48,134.48,0,0,1,138,3,72.75,72.75,0,0,1,6.54-10A146.42,146.42,0,0,0,92.72,19.79ZM312.81,140.43a73.79,73.79,0,0,1-10.14.72c-.62,0-1.23,0-1.84-.05.07,1.86.12,3.73.12,5.61a134.32,134.32,0,0,1-41,96.72,99,99,0,0,1,4.77,12A146.39,146.39,0,0,0,313,146.71Q313,143.56,312.81,140.43ZM31.52,146.71c0-1.92.05-3.84.13-5.75a73.45,73.45,0,0,1-11.94-1.79c-.12,2.5-.19,5-.19,7.54a146.45,146.45,0,0,0,52,112,100.19,100.19,0,0,1,4.36-12.11A134.41,134.41,0,0,1,31.52,146.71Z"/><path class="cls-1" d="M90.81,91.38C86,77.64,80,67.29,66.72,67.29H62.11a17.34,17.34,0,0,1-27.9,0H29.6c-13.31,0-19.43,9.84-24.09,24.09L0,105.8a73.17,73.17,0,0,0,96.31,0Z"/><circle class="cls-1" cx="290.01" cy="33.33" r="27.33"/><path class="cls-1" d="M332.66,91.38c-4.78-13.74-10.79-24.09-24.1-24.09H304a17.35,17.35,0,0,1-27.91,0h-4.6c-13.31,0-19.43,9.84-24.1,24.09l-5.5,14.42a73.17,73.17,0,0,0,96.31,0Z"/><circle class="cls-1" cx="168.6" cy="180.27" r="51.69"/><path class="cls-1" d="M249.28,290.07c-9.05-26-20.41-45.57-45.57-45.57H195a32.82,32.82,0,0,1-52.78,0H133.5c-25.17,0-36.75,18.61-45.57,45.57L77.51,317.34a138.38,138.38,0,0,0,182.18,0Z"/></g></g></svg>