<svg xmlns="http://www.w3.org/2000/svg" viewBox="0 0 414.91 313.68"><defs><style>.cls-1{fill:#1f7f9b;}.cls-2{fill:#fff;}.cls-3{fill:none;stroke:#fff;stroke-linecap:round;stroke-miterlimit:10;stroke-width:9px;}</style></defs><g id="Layer_2" data-name="Layer 2"><g id="Layer_1-2" data-name="Layer 1"><path class="cls-1" d="M284.19,0H39.9A39.91,39.91,0,0,0,0,39.9V193.19A39.91,39.91,0,0,0,39.9,233.1h8.46v39.39l57.11-39.39h60.9V142.42a39.34,39.34,0,0,1,39.3-39.3H324.06V34.8C324.06,17.87,306.22,0,284.19,0Z"/><path class="cls-2" d="M174,119.16H43.08a4.5,4.5,0,0,0,0,9h126A39,39,0,0,1,174,119.16Z"/><line class="cls-3" x1="43.08" y1="47.66" x2="184.44" y2="47.66"/><line class="cls-3" x1="205.57" y1="47.66" x2="288.8" y2="47.66"/><line class="cls-3" x1="43.08" y1="161.66" x2="126.31" y2="161.66"/><line class="cls-3" x1="43.08" y1="85.66" x2="101.65" y2="85.66"/><line class="cls-3" x1="122.95" y1="85.66" x2="264.14" y2="85.66"/><path class="cls-1" d="M385.54,113.05H205.67a29.37,29.37,0,0,0-29.37,29.37V255.3a29.37,29.37,0,0,0,29.37,29.37H337.25l42.05,29v-29h6.24a29.37,29.37,0,0,0,29.37-29.37V142.42A29.37,29.37,0,0,0,385.54,113.05Z"/><path class="cls-1" d="M274.89,240.47a11.66,11.66,0,0,1-8-3.23,11.37,11.37,0,0,1-3.52-8.29l0-60.28a11.5,11.5,0,0,1,17.26-10l52.19,30.16a11.5,11.5,0,0,1,0,19.92l-52.22,30.13A11.55,11.55,0,0,1,274.89,240.47Z"/><path class="cls-2" d="M274.91,161.66a7,7,0,0,1,3.5,1l52.19,30.16a7,7,0,0,1,0,12.13L278.38,235a6.93,6.93,0,0,1-3.49.95,7,7,0,0,1-7-7l0-60.28a7,7,0,0,1,7-7m0-9h0a16,16,0,0,0-16,16l0,60.28a16,16,0,0,0,24,13.87l52.22-30.13a16,16,0,0,0,0-27.72l-52.19-30.15a15.93,15.93,0,0,0-8-2.16Z"/></g></g></svg>